<svg width="124" height="71" viewBox="0 0 124 71" fill="none" xmlns="http://www.w3.org/2000/svg">
<path d="M61.7155 0.444337C61.2453 0.951823 60.1481 1.45931 57.1309 2.61091C54.7994 3.48926 53.3887 4.40664 51.3119 6.33899C49.5878 7.95904 48.1967 9.75477 47.1191 11.7262C45.924 13.8927 45.1599 14.0879 42.6912 12.8582C40.5361 11.8042 38.5376 10.4184 36.6763 8.70075C35.7947 7.90049 34.8934 7.19781 34.6583 7.13926C33.9726 6.96359 32.4052 8.15423 23.2555 15.8251C20.5909 18.0697 19.8856 18.5187 19.0627 18.5187C17.8676 18.5187 15.634 16.1959 14.8307 14.1465L14.5368 13.4048L9.38401 20.0021C6.5431 23.6521 3.91771 26.9898 3.54545 27.4387C2.3699 28.9026 3.1536 28.3171 4.58386 26.6775C5.34796 25.8187 6.95454 24.0425 8.14969 22.7542C9.36442 21.466 10.8143 19.7288 11.3629 18.9286C12.4992 17.2695 13.6552 15.9812 14.0078 15.9812C14.1254 15.9812 14.6152 16.4692 15.0658 17.0548C15.6144 17.7574 16.5353 18.5577 17.652 19.2994C19.1215 20.2949 19.866 20.6072 22.7657 21.5441C26.1748 22.6566 28.9569 23.3983 29.6622 23.3983C30.3676 23.3788 29.2704 22.7347 27.7618 22.2467C25.685 21.5636 24.0784 20.8024 23.1379 20.0021C22.6677 19.6117 22.0799 19.2994 21.8252 19.2994C21.5705 19.2994 21.3158 19.2213 21.2571 19.1237C21.0024 18.7334 24.4506 15.8641 27.8989 13.6C28.663 13.0925 30.1912 11.8433 31.3276 10.8088C34.1097 8.29086 34.5408 8.19327 35.344 10.028C35.6183 10.6331 35.9514 11.1016 36.1277 11.1016C36.3041 11.1016 36.5196 11.4919 36.7155 12.2141C37.4013 14.732 37.6168 15.3566 37.9498 15.6299C38.1262 15.8056 38.9295 16.0398 39.7328 16.1764C41.0063 16.3911 41.3981 16.5668 42.9851 17.6403C45.2187 19.1628 45.9436 19.5336 47.6873 20.0606C48.4514 20.2754 49.2939 20.6852 49.5878 20.9585C50.156 21.466 50.7241 23.047 50.7241 24.062C50.7241 25.155 50.9397 25.5454 51.7821 25.9748C52.7618 26.4823 53.5651 27.0483 55.2304 28.4732C57.1505 30.1128 58.7962 30.7179 57.0133 29.1369C55.5047 27.7901 53.8589 24.1791 54.9953 24.6866C55.9357 25.0965 59.1097 26.131 59.4428 26.1115C59.7955 26.1115 59.7955 26.0724 59.3448 25.7796C58.2868 25.0574 57.2484 24.0034 55.779 22.0906C53.8393 19.5727 52.8009 18.6748 50.7829 17.7184C49.4506 17.0938 49.0784 16.801 48.7257 16.1764C48.4122 15.6299 48.0596 15.3371 47.5893 15.181C47.2171 15.0639 46.8252 14.8882 46.7273 14.8101C46.6489 14.7125 47.0408 14.1855 47.6285 13.6C48.2947 12.9363 48.7649 12.2532 48.9216 11.7652C49.4898 9.87188 51.7821 7.23685 54.2312 5.65583C56.0533 4.48471 61.0102 2.10343 61.8527 1.98632C62.6951 1.8692 63.3809 2.31813 64.1646 3.46974C64.4193 3.86011 64.8699 4.52375 65.1638 4.95316C66.1238 6.39755 66.6332 7.95904 66.8096 10.0866C67.0055 12.2336 67.123 12.585 67.9851 13.6C68.3378 13.9903 68.5533 14.4588 68.5533 14.8296C68.5533 15.3566 68.6121 15.3957 68.9843 15.2981C69.3762 15.1614 69.3958 15.2005 69.2782 16.0008C69.2194 16.4692 69.1019 17.1524 69.0235 17.4842C68.8276 18.4211 69.3566 18.3235 69.9248 17.3085C70.3362 16.5863 70.4146 16.5278 70.5909 16.8401C71.982 19.1823 76.0768 24.7647 76.3903 24.7647C76.4687 24.7647 76.645 24.628 76.7821 24.4719C77.1936 23.9839 77.3111 24.1205 77.5658 25.3893C77.8401 26.6775 78.2908 27.5168 79.0745 28.1804C79.4467 28.4927 79.5643 28.8636 79.7014 30.0347C79.9169 31.8695 80.3872 32.9625 80.9357 32.8064C81.4647 32.6697 81.6803 33.0796 81.6803 34.2312C81.6803 35.1291 81.7782 35.3438 82.9342 36.8663C83.6199 37.7836 84.5604 38.8767 85.011 39.3061L85.8143 40.0869L85.2265 38.8181C84.8934 38.0959 84.4624 36.6125 84.2273 35.4024C83.1693 29.8005 82.8166 28.8441 79.9953 23.9644C77.4483 19.5532 76.743 18.1673 76.8801 17.9331C76.9585 17.816 77.3503 17.7379 77.7618 17.7379C78.7218 17.7379 78.8785 17.328 78.4671 15.9032C78.2908 15.3176 78.1928 14.732 78.2516 14.5759C78.3104 14.4393 79.4859 13.7756 80.8574 13.112C82.9538 12.097 87.6951 9.1692 88.7531 8.25182C88.9295 8.09567 89.1254 8.03712 89.1842 8.11519C89.4977 8.40797 89.2821 8.91546 88.5376 9.63765C88.1066 10.0475 87.7539 10.4965 87.7539 10.6331C87.7539 10.7697 88.0282 10.9649 88.3417 11.082C89.2821 11.3943 91.8879 13.3072 93.6121 14.9077C95.0815 16.2935 95.2383 16.5473 96.8644 19.7483C97.8049 21.5831 98.8433 23.535 99.1959 24.0815L99.8033 25.0574L99.9209 23.8863C99.9992 23.1836 99.9404 22.1687 99.7837 21.3879C99.627 20.6462 99.5094 19.9826 99.5094 19.885C99.5094 19.7874 99.9209 20.1582 100.45 20.7048C101.39 21.7197 102.272 22.2272 103.114 22.2272C103.487 22.2272 103.859 21.8759 104.819 20.5486C106.092 18.7724 106.896 18.1283 107.797 18.1283C108.463 18.1283 108.894 18.343 110.207 19.3385C110.755 19.7483 111.245 20.0802 111.304 20.0802C111.363 20.0802 111.48 19.8655 111.539 19.5922C111.774 18.6553 111.892 18.7724 116.3 25.0379C118.651 28.3756 118.886 28.6489 118.024 27.0093C116.692 24.4719 113.655 20.0997 110.089 15.5518L109.227 14.4588L107.288 16.274C106.073 17.4256 104.858 18.343 104.016 18.7919C103.291 19.1823 102.625 19.4946 102.546 19.4946C102.487 19.4946 102.233 19.0847 102.017 18.5577C100.176 14.3807 94.6897 8.77883 89.4781 5.77295L88.5572 5.24594L87.9694 6.49514C86.8331 8.83739 84.4232 10.7893 80.0345 12.8582C78.0165 13.8342 77.4287 14.0294 76.5862 14.0294H75.5478L73.7649 12.2141C72.7657 11.2382 71.3158 9.50102 70.5125 8.36894C67.4169 3.95771 65.4185 1.83017 63.0478 0.405299C62.1662 -0.121706 62.2445 -0.121706 61.7155 0.444337Z" fill="#333333"/>
<path d="M29.8973 33.2944C29.819 33.3529 29.7602 33.8214 29.7602 34.3093C29.7602 35.2853 29.5055 35.8903 29.29 35.5195C29.2116 35.4024 29.0745 35.3048 28.9569 35.3048C28.6434 35.3048 28.761 35.7732 29.2704 36.5345C29.7994 37.2957 29.7798 37.3933 29.1724 37.0224C28.7022 36.7296 28.3691 37.0029 28.8002 37.3152C29.1528 37.5885 29.0745 38.0374 28.663 38.0374C28.2516 38.0374 28.3299 38.3692 28.8198 38.701C29.2116 38.9743 29.2116 39.0133 28.8981 39.0133C28.6434 39.0133 28.5651 39.1109 28.6434 39.4037C28.761 39.8526 28.5846 39.9112 28.232 39.5599C28.0556 39.3842 27.9969 39.4037 27.9969 39.677C27.9969 39.9893 27.8793 40.0283 27.3111 39.9307C26.9389 39.8722 26.6254 39.8722 26.6254 39.9502C26.6254 40.1259 27.6246 40.9652 27.8597 40.9652C27.9577 40.9652 27.9969 41.1018 27.9185 41.258C27.8597 41.4141 27.8989 41.5508 27.9969 41.5508C28.0948 41.5508 28.0361 41.7264 27.8597 41.9216C27.6834 42.1363 27.4679 42.273 27.3699 42.2144C27.2915 42.1559 27.2132 42.2534 27.2132 42.4291C27.2132 42.6829 27.1348 42.7024 26.8017 42.5267C26.214 42.1949 26.018 42.3706 26.3315 42.9171C26.4883 43.1903 26.7038 43.6198 26.8213 43.8735C26.9585 44.1858 27.1348 44.3029 27.3895 44.2248C27.5854 44.1858 27.8793 44.2053 28.0165 44.3029C28.2516 44.4591 28.2516 44.5176 27.9969 44.6542C27.8401 44.7714 27.6246 44.7714 27.5071 44.6738C27.4091 44.5957 27.076 44.5567 26.7625 44.6152C26.3315 44.6933 26.2727 44.7714 26.4491 44.9861C26.5666 45.1422 26.6254 45.396 26.547 45.5521C26.4883 45.7473 26.5666 45.8449 26.8017 45.8449C26.9977 45.8449 27.2719 45.9815 27.4091 46.1377C27.6246 46.3914 27.5658 46.4305 27.0172 46.3719C26.6842 46.3329 26.3119 46.1767 26.2335 46.0206C26.1356 45.8839 25.9984 45.8254 25.9201 45.9034C25.8417 45.9815 25.6654 45.9425 25.5086 45.8254C25.3127 45.6497 25.2539 45.6692 25.2539 45.9034C25.2539 46.0986 25.1364 46.1767 24.96 46.1182C24.8033 46.0401 24.6661 46.0986 24.6661 46.2157C24.6661 46.3524 24.8033 46.489 24.96 46.5476C25.2343 46.6647 25.2147 46.7037 24.9209 46.9379C24.5878 47.1722 24.5878 47.1917 24.9013 47.2112C25.0972 47.2112 25.1951 47.3283 25.1364 47.4649C25.0384 47.7577 25.7633 47.8748 25.9397 47.5821C26.018 47.4845 26.1944 47.4064 26.3511 47.4064C26.8213 47.4064 25.9005 48.1871 25.4107 48.2067C25.0776 48.2262 25.0384 48.2457 25.3127 48.3238C25.5478 48.3823 25.6066 48.5385 25.5282 48.8703C25.4303 49.2607 25.5086 49.3583 25.9201 49.4754C26.5862 49.6315 26.5666 49.7682 25.7437 50.6465C25.3715 51.0369 25.1168 51.4272 25.1756 51.5248C25.2343 51.6224 25.1951 51.7005 25.0776 51.7005C24.9796 51.7005 24.8425 51.6224 24.7837 51.5444C24.6661 51.3687 22.4326 51.4077 22.1191 51.6029C21.8252 51.7786 21.884 52.0909 22.2171 52.0909C22.3738 52.0909 22.511 52.169 22.511 52.2861C22.511 52.3837 22.6873 52.4813 22.8832 52.4813C23.0988 52.4813 23.2947 52.5984 23.3535 52.7155C23.4122 52.9107 23.4906 52.9107 23.7257 52.7155C23.9804 52.5203 24.0392 52.5203 24.0196 52.7155C24 53.5157 24.0784 53.6914 24.4898 53.5938C24.7249 53.5353 24.9209 53.5938 24.9992 53.7695C25.1364 54.1403 25.4498 54.1208 25.4498 53.7109C25.4498 53.5353 25.5086 53.4377 25.5674 53.5157C25.6262 53.5743 25.6262 53.9061 25.5478 54.2379C25.4107 54.843 25.3911 54.8625 24.5486 54.7649C24.0784 54.7259 23.6865 54.7649 23.6865 54.8625C23.6865 54.9601 23.373 54.9796 23.0008 54.9016C22.511 54.8235 22.1975 54.8625 21.9624 55.0772C21.5118 55.4676 20.826 55.6628 20.3558 55.5067C19.7484 55.3115 19.8856 55.0577 20.7085 54.9016C21.5118 54.7649 22.3151 54.3355 22.3151 54.0427C22.3151 53.9256 22.1779 53.8476 22.0212 53.8476C21.8644 53.8476 21.7273 53.75 21.7273 53.6524C21.7273 53.5353 21.6097 53.4572 21.453 53.4572C20.9632 53.4572 20.8848 53.0473 21.3158 52.7545C21.5509 52.5984 21.7273 52.2861 21.7273 52.0714C21.7273 51.7786 21.5901 51.7005 21.0611 51.7005C20.2187 51.7005 19.8268 51.2711 20.1207 50.6465C20.2774 50.2756 20.2774 50.1585 20.0619 50.0805C19.9052 50.0024 19.8072 49.573 19.7876 48.7532C19.768 47.016 19.4154 46.8208 19.239 48.4799C19.1803 48.9679 19.0235 49.3583 18.906 49.3583C18.7688 49.3583 18.6904 49.8657 18.6904 50.7636V52.1885L17.9459 52.1494L17.2014 52.1104L17.7108 52.774C18.0047 53.1254 18.3378 53.4767 18.4553 53.5353C18.9256 53.7305 17.9263 54.277 17.319 54.1599C16.7704 54.0623 16.7508 54.0623 17.1035 54.3355C17.319 54.4917 17.652 54.6283 17.848 54.6283C18.0439 54.6283 18.2006 54.7649 18.2006 54.9406C18.2006 55.1748 18.0635 55.2139 17.5933 55.1163C17.123 54.9992 17.0055 55.0382 17.0643 55.2334C17.1622 55.5262 17.5541 55.5457 18.4945 55.331C19.0431 55.1944 19.0627 55.1944 18.71 55.4871C18.4945 55.6628 18.0831 55.7994 17.8088 55.7994C17.0447 55.7994 16.0259 56.1898 16.163 56.424C16.2414 56.5411 16.5745 56.5802 16.9075 56.5216C17.4561 56.4436 17.5345 56.4826 17.5345 56.8339C17.5149 57.0877 17.6129 57.2438 17.7696 57.2243C18.1614 57.1267 18.0439 57.4585 17.4561 58.005C17.1035 58.3369 16.5353 58.5906 15.8691 58.7272C14.7915 58.9224 14.4781 58.8639 14.4781 58.454C14.4781 58.0636 13.5572 56.951 12.9107 56.5607C12.2837 56.1703 12.1074 55.4676 12.6168 55.2919C12.8715 55.1944 13.9099 55.4481 15.1246 55.9165C15.634 56.0922 15.5361 55.6433 14.9483 55.1163C14.674 54.8625 14.4977 54.5502 14.576 54.4526C14.6544 54.316 14.4977 54.2379 14.2038 54.2379C13.6356 54.2379 13.3221 53.8671 13.714 53.6524C13.9099 53.5157 13.9099 53.4377 13.714 53.1839C13.4984 52.9302 13.5376 52.7936 13.8707 52.3641C14.3997 51.681 14.3017 51.6029 13.4397 52.0128C12.656 52.3837 12.0094 52.2861 11.3237 51.7005L10.8535 51.3296L11.8527 51.3101C12.5972 51.3101 12.9498 51.2125 13.2045 50.9198C13.4005 50.705 13.6748 50.5294 13.7923 50.5294C13.9295 50.5294 14.0862 50.2756 14.1254 49.9438C14.243 49.1436 13.8315 49.046 12.7931 49.651C11.8723 50.178 10.9318 50.2756 10.5792 49.8853C10.3049 49.5339 10.5008 49.3583 11.1669 49.3583C11.8527 49.3583 12.558 49.085 13.087 48.6361C13.5964 48.2067 13.616 47.9919 13.1262 47.9919C12.9303 47.9919 12.7147 47.8553 12.6364 47.6992C12.5776 47.543 12.4013 47.4064 12.2641 47.4064C12.1074 47.4064 11.8723 47.2893 11.7547 47.1331C11.5588 46.8989 11.598 46.8013 11.9702 46.6061C12.5188 46.3329 12.7147 46.0596 12.7147 45.5911C12.7147 45.3374 12.5384 45.2593 11.8723 45.2593C11.402 45.2593 10.9318 45.1617 10.7947 45.0251C10.5008 44.7323 10.5008 44.0296 10.7947 43.7369C10.971 43.5612 10.9514 43.4441 10.6967 43.2684C10.442 43.0732 10.3636 42.6633 10.3245 41.3946C10.3049 40.243 10.2265 39.7941 10.0502 39.7941C9.77586 39.7941 9.38401 41.3946 9.52116 41.9607C9.59953 42.2339 9.52116 42.3315 9.20768 42.3315C8.77665 42.3315 8.65909 42.7024 8.99217 43.0342C9.10972 43.1513 9.10972 43.4441 8.99217 43.8735C8.8942 44.2248 8.85502 44.7518 8.9138 45.0446C9.07054 45.8059 8.6395 46.0986 7.83621 45.8254C7.13088 45.5716 6.8174 45.7278 7.26803 46.0986C7.42477 46.2157 7.75784 46.6256 7.99295 46.9575C8.22806 47.3088 8.58072 47.6016 8.75706 47.6016C9.03135 47.6211 8.99217 47.6796 8.61991 47.9919C8.1105 48.4214 7.52273 48.4994 7.30721 48.1676C7.24843 48.0505 6.93495 47.9919 6.62148 48.07C5.83778 48.2262 5.85737 47.6796 6.64107 47.504C6.95455 47.4259 7.28762 47.2893 7.3464 47.1722C7.42477 47.0355 7.26803 47.016 6.91536 47.0941C6.308 47.2307 5.32837 46.7037 5.79859 46.5085C5.91615 46.45 6.26881 46.0986 6.54311 45.7278L7.0721 45.0446L6.308 45.1032L5.56348 45.1617V43.7369C5.56348 42.7414 5.5047 42.3315 5.32837 42.3315C5.17163 42.3315 5.07367 42.0583 5.07367 41.5898C5.07367 40.8676 4.79937 40.204 4.58386 40.3992C4.52508 40.4577 4.4663 41.0628 4.4663 41.7264C4.44671 42.5462 4.34875 42.9756 4.19201 43.0537C3.97649 43.1318 3.97649 43.2489 4.15282 43.6393C4.32915 44.0492 4.30956 44.1663 3.99608 44.4005C3.80016 44.5567 3.38872 44.6738 3.07524 44.6738C2.3895 44.6738 2.33072 45.2593 2.97727 45.7278C3.27116 45.962 3.32994 46.0791 3.15361 46.1572C3.01646 46.2157 2.78135 46.3914 2.6442 46.5476C2.48746 46.7037 2.27194 46.8208 2.15439 46.8208C1.78213 46.8208 1.91928 47.1917 2.36991 47.4845C2.62461 47.6211 3.15361 47.8163 3.56505 47.8748C4.36834 48.031 4.50549 48.2847 3.89812 48.4799C3.66301 48.558 3.15361 48.4409 2.66379 48.2067C1.56662 47.6796 1.3511 47.6992 1.3511 48.2652C1.3511 48.8117 2.44828 49.5534 3.27116 49.5534C3.74138 49.5534 3.76097 49.573 3.46709 49.8657C3.13401 50.2171 2.50705 50.2756 1.74295 50.0219C1.25314 49.8657 1.25314 49.8853 1.58621 50.3732C1.84091 50.7636 1.8605 50.9198 1.68417 50.9783C1.50784 51.0369 1.50784 51.1345 1.72335 51.3687C1.95846 51.6615 1.91928 51.7005 1.44906 51.7005C1.05721 51.7005 0.939656 51.7786 1.03762 51.9933C1.0964 52.169 0.978841 52.3641 0.763323 52.4813C0.547806 52.5984 0.371474 52.8131 0.371474 52.9692C0.371474 53.3206 0.449844 53.3401 1.11599 52.9887C1.40988 52.8521 1.88009 52.6764 2.19357 52.5984C3.01646 52.4032 2.87931 53.1254 1.93887 54.0232C1.50784 54.4331 1.15517 54.9016 1.15517 55.0968C1.15517 55.2724 0.939656 55.5067 0.665361 55.6042C0.175549 55.7994 -0.0203758 56.1898 0.391066 56.1898C0.547806 56.1898 0.547806 56.2679 0.371474 56.4631C-0.0399683 56.9706 0.645769 58.0831 1.46865 58.2198C2.56583 58.4345 2.29154 58.8053 1.15517 58.6492C0.371474 58.5516 0.136364 58.5711 0.0579941 58.8248C-0.137931 59.3323 0.508621 60.0936 1.15517 60.0936C1.8605 60.0936 1.89969 60.3473 1.31191 60.8743C0.0384017 62.0259 0.0579941 61.9283 0.900471 62.0454C1.31191 62.104 1.99765 62.3187 2.40909 62.5139C2.84013 62.7091 3.38872 62.8262 3.64342 62.7676C3.89812 62.7286 4.07445 62.7286 4.03527 62.8067C4.01568 62.8652 3.78057 63.3337 3.54546 63.8411C3.31035 64.3291 2.85972 64.9147 2.56583 65.1294L2.03683 65.5198L2.54624 65.754C2.93809 65.9296 3.1732 65.9296 3.50627 65.754C3.74138 65.6369 3.97649 65.5783 4.05486 65.6369C4.27038 65.8711 3.80016 66.1248 3.03605 66.1834L2.29154 66.2419L3.03605 67.0032C4.13323 68.1353 5.87696 69.1893 7.58151 69.7358C11.4412 70.985 14.3605 71.1021 33.9922 70.7313C42.9067 70.5751 50.2539 70.3994 50.2931 70.3409C50.4694 70.1652 46.0024 69.3454 41.5157 68.7403C40.5361 68.6037 39.9483 68.3695 39.9483 68.0962C39.9483 67.9791 40.1246 67.901 40.3401 67.901C40.5948 67.901 40.6928 67.8034 40.6144 67.6083C40.5165 67.3936 40.634 67.3155 41.1042 67.3155C41.4373 67.3155 41.7116 67.2374 41.7116 67.1398C41.7116 66.8861 40.5948 66.5347 39.7915 66.5347C39.2234 66.5347 39.1254 66.4762 39.2234 66.1639C39.2821 65.8711 39.1842 65.7735 38.7336 65.6759C38.4005 65.6173 37.9107 65.5588 37.6364 65.5588C37.3621 65.5588 37.2053 65.5002 37.2837 65.4222C37.3621 65.3246 37.5384 65.266 37.6364 65.266C37.989 65.266 38.0478 64.778 37.7147 64.6609C37.5384 64.6024 37.4013 64.3877 37.4013 64.1925C37.4013 63.9973 37.2445 63.8021 37.029 63.7436C36.6763 63.6655 35.9318 62.4553 36.1278 62.2796C36.1865 62.2211 36.4412 62.3772 36.7155 62.631C37.3033 63.197 37.558 63.0409 37.1074 62.3772C36.8527 61.9869 36.8527 61.8698 37.0682 61.7917C37.2249 61.7331 37.46 61.7722 37.6168 61.8698C37.989 62.104 38.9687 62.0845 38.9687 61.8698C38.9687 61.7526 38.8903 61.616 38.7727 61.5575C38.4593 61.3623 38.5376 61.0109 38.8707 61.128C39.2038 61.2647 39.4977 60.8938 39.2234 60.6986C39.1058 60.6401 38.9295 60.3863 38.7923 60.1521C38.5768 59.7422 38.616 59.7422 39.2625 59.8398C39.7132 59.9179 39.9483 59.8788 39.9483 59.7227C39.9483 59.6056 40.0854 59.508 40.2422 59.508C40.3989 59.508 40.5361 59.4104 40.5361 59.3128C40.5361 59.1957 40.3205 59.1176 40.0462 59.1176C39.772 59.1176 39.5564 59.02 39.5564 58.9029C39.5564 58.7663 39.4193 58.7468 39.2234 58.8248C39.0274 58.9029 38.7531 59.0005 38.5964 59.0786C38.3809 59.1567 38.3417 59.0786 38.4397 58.7468C38.5376 58.3564 38.4984 58.3369 37.8323 58.4735C37.4209 58.5516 36.8723 58.5906 36.598 58.5906C36.1473 58.5516 36.0886 58.6101 36.1669 59.0786C36.2257 59.5861 36.2257 59.5861 36.0494 59.1567C35.7947 58.6101 35.971 58.1417 36.4216 58.1417C36.6176 58.1417 36.8135 58.0441 36.8527 57.927C36.8919 57.8294 37.2053 57.7123 37.558 57.7123C38.087 57.6927 38.1654 57.6342 38.0674 57.2633C37.9107 56.6583 38.2241 56.6192 43.7884 56.4826L48.471 56.346L52.3503 57.3414C56.2492 58.3369 59.9522 58.8639 59.6583 58.3759C59.5799 58.2393 58.9138 57.7903 58.1693 57.3609C57.4248 56.9315 56.7586 56.4826 56.6999 56.385C56.4843 56.0337 58.2868 55.7018 60.4224 55.7214C62.3229 55.7409 66.2414 56.346 66.5745 56.6778C66.6136 56.7363 66.5549 56.8925 66.4373 57.0096C66.0455 57.4 66.163 57.5756 66.7508 57.5171C67.1818 57.478 67.2798 57.5366 67.2798 57.8879C67.2994 58.493 67.4757 58.6101 67.9655 58.3369C68.3182 58.1417 68.4357 58.1807 68.6709 58.4735C68.808 58.6687 68.9452 58.8834 68.9452 58.9615C68.9452 59.1371 67.0447 59.5665 66.8096 59.4299C66.7116 59.3714 66.5941 59.4299 66.5353 59.547C66.4569 59.7422 66.3981 59.7617 66.1826 59.547C65.7712 59.1762 65.5752 59.2738 65.8299 59.7227C66.0455 60.1326 66.0063 60.1326 65.3401 60.0155C64.576 59.8788 64.3017 60.2302 65.0267 60.4254C65.4577 60.5425 65.5752 61.0695 65.1638 61.0695C64.8895 61.0695 64.047 61.8698 64.047 62.1235C64.047 62.2211 64.3017 62.2406 64.6152 62.1821C64.9875 62.104 65.2226 62.143 65.2814 62.3187C65.3401 62.4553 65.732 62.67 66.1826 62.7871C66.7704 62.9628 67.0055 63.158 67.1035 63.5093C67.2406 64.0754 67.3386 64.0949 67.7696 63.7045C68.0635 63.4508 68.1419 63.4313 68.3378 63.685C68.4749 63.8411 68.5141 64.173 68.4553 64.4267C68.3182 64.9537 67.2406 65.6564 67.1231 65.305C67.0839 65.1489 66.9467 65.1879 66.7116 65.4222C66.2806 65.8516 65.9671 65.8516 65.1834 65.3636C64.4193 64.8952 64.1058 64.8561 64.4389 65.266C64.7132 65.5783 64.6348 65.6173 63.714 65.5588C62.8519 65.5198 62.8911 65.8711 63.7727 66.1444C64.1646 66.281 64.3997 66.4567 64.3017 66.5347C64.2234 66.6128 62.3621 66.9251 60.1873 67.2374C57.993 67.5302 56.21 67.8425 56.21 67.9206C56.21 68.4085 57.8166 68.4671 70.7085 68.3304C85.1677 68.1743 87.1858 68.2524 90.7908 68.9746C95.826 69.9895 97.0995 70.1262 101.371 70.1457C105.975 70.1457 110.56 69.9505 110.912 69.7358C111.03 69.6577 111.187 69.6968 111.226 69.8139C111.285 69.9895 112.852 70.0481 117.241 70.0481C122.276 70.0481 123.197 70.0091 123.412 69.7553C123.628 69.5016 123.569 69.4821 123.001 69.5796C122.629 69.6382 122.217 69.7358 122.08 69.7748C121.786 69.8724 121.061 69.5211 121.061 69.2869C121.061 69.2088 121.296 69.0331 121.59 68.8965L122.139 68.6427L121.649 68.3695L121.159 68.1157L121.806 68.0962C122.217 68.0962 122.433 67.9986 122.433 67.823C122.433 67.6668 122.609 67.4716 122.824 67.4131C123.471 67.2179 123.275 66.8861 122.609 67.0227C122.178 67.1203 122.041 67.1008 122.119 66.9446C122.295 66.6714 122.139 66.6714 121.669 66.9641C121.473 67.0813 121.179 67.1398 121.042 67.0813C120.885 67.0227 120.728 66.9837 120.669 66.9837C120.317 67.0032 119.69 66.4567 119.69 66.1248C119.69 65.7735 119.768 65.7345 120.179 65.8321C120.513 65.9101 120.669 65.8711 120.669 65.6954C120.669 65.4417 121.923 64.778 122.452 64.778C122.629 64.7585 122.511 64.5829 122.198 64.2901C121.688 63.8607 121.688 63.8021 122.002 63.6264C122.295 63.4508 122.295 63.4313 121.904 63.4117C121.649 63.4117 121.453 63.3141 121.453 63.2165C121.453 63.0994 121.218 63.0214 120.924 63.0214C120.101 63.0214 119.474 62.8067 119.553 62.5529C119.592 62.4358 119.827 62.3577 120.062 62.3772C120.375 62.4163 120.473 62.3382 120.434 62.0845C120.395 61.8307 120.493 61.7722 120.865 61.8112C121.277 61.8893 121.296 61.8502 121.081 61.577C120.846 61.3037 120.865 61.2061 121.12 60.9133C121.414 60.601 121.355 60.5815 120.434 60.5425C119.494 60.5034 119.102 60.2887 119.102 59.8008C119.102 59.6837 119.18 59.7227 119.278 59.8788C119.396 60.0545 119.494 60.074 119.572 59.9374C119.65 59.8203 119.827 59.7617 119.984 59.8398C120.16 59.8984 120.277 59.8203 120.277 59.6251C120.277 59.469 120.493 59.2738 120.748 59.1957C121.022 59.1371 121.277 58.9615 121.335 58.8248C121.453 58.5125 121.042 58.3759 120.179 58.4149C119.768 58.4345 119.455 58.2783 119.161 57.927C118.632 57.3219 118.612 57.1657 118.984 57.1657C119.121 57.1657 119.298 56.951 119.337 56.6778C119.415 56.3655 119.357 56.1898 119.18 56.1898C119.043 56.1898 118.886 56.1117 118.828 56.0141C118.749 55.9165 118.867 55.8775 119.063 55.9361C119.533 56.0532 119.944 55.2139 119.592 54.9016C119.474 54.7649 119.239 54.7454 119.082 54.8235C118.514 55.1358 117.926 55.2334 117.926 55.0382C117.926 54.9211 118.083 54.8235 118.279 54.8235C118.495 54.8235 118.632 54.6869 118.632 54.4331C118.632 54.0427 118.495 53.9647 117.848 54.0427C117.632 54.0623 117.535 53.9842 117.632 53.8671C117.691 53.75 117.828 53.6914 117.926 53.75C118.083 53.8476 118.906 52.8716 118.906 52.5788C118.906 52.5203 118.749 52.4813 118.573 52.5203C117.711 52.6569 117.456 51.8957 118.181 51.2906L118.612 50.9393L118.122 50.9002C117.848 50.8807 117.535 50.8612 117.437 50.8612C117.319 50.8612 117.221 50.627 117.241 50.3537C117.241 50.0805 117.162 49.7877 117.064 49.7096C116.947 49.6315 116.986 49.4559 117.162 49.2411C117.417 48.9288 117.397 48.9093 117.006 49.0069C116.594 49.124 116.574 49.1045 116.849 48.7141C117.221 48.1871 117.221 47.9919 116.849 47.9919C116.653 47.9919 116.555 47.7772 116.555 47.3088C116.555 46.9379 116.477 46.6256 116.359 46.6256C116.261 46.6256 116.163 47.0355 116.163 47.5235C116.163 48.3238 116.124 48.4018 115.771 48.2847C115.556 48.2067 115.379 48.2457 115.379 48.3628C115.379 48.4799 115.556 48.6556 115.771 48.7727C115.987 48.8898 116.163 49.0655 116.163 49.1826C116.163 49.2997 116.085 49.3192 115.967 49.2607C115.869 49.2021 115.771 49.2411 115.771 49.3387C115.771 49.4559 115.614 49.5534 115.438 49.5534C115.183 49.5534 115.144 49.5925 115.34 49.7096C115.614 49.8853 115.458 50.5294 115.125 50.5294C115.027 50.5294 115.066 50.6855 115.242 50.8807C115.673 51.3492 115.673 51.7005 115.262 51.7005C114.987 51.7005 114.987 51.7591 115.183 51.9933C115.516 52.3837 115.281 52.3641 114.654 51.9542C114.165 51.6224 114.125 51.6224 114.243 51.9347C114.341 52.1885 114.302 52.247 114.047 52.1494C113.871 52.0909 113.773 52.0909 113.851 52.1885C113.929 52.2665 113.91 52.4617 113.792 52.5984C113.655 52.774 113.734 52.9107 114.125 53.1059C114.87 53.4572 114.948 54.1794 114.282 54.4331C113.792 54.6283 113.224 55.0772 113.224 55.2919C113.224 55.3505 113.361 55.4091 113.518 55.4091C113.694 55.4091 113.871 55.5457 113.929 55.7018C114.008 55.858 114.125 55.9361 114.223 55.8775C114.321 55.819 114.341 55.9165 114.282 56.0922C114.204 56.2679 114.047 56.3655 113.91 56.3069C113.773 56.2679 113.498 56.346 113.283 56.4826C112.95 56.7559 112.95 56.7559 113.322 56.7949C113.538 56.8144 113.871 56.7949 114.086 56.7754C114.361 56.7559 114.263 56.9706 113.616 57.7318C112.832 58.6492 112.734 58.7077 112.44 58.4345C112.245 58.2588 112.029 58.1417 111.931 58.1807C111.716 58.2588 110.834 57.6537 110.971 57.5171C111.03 57.4585 110.893 57.2633 110.677 57.0682C110.266 56.6973 110.129 56.2679 110.52 56.5021C110.677 56.5997 110.697 56.5411 110.618 56.3264C110.52 56.0532 110.579 56.0141 110.951 56.1117C111.343 56.2093 111.402 56.1508 111.363 55.6433C111.343 55.2529 111.402 55.0772 111.559 55.1553C111.696 55.1944 111.853 55.0968 111.911 54.9406C111.99 54.7259 111.833 54.6283 111.245 54.5307L110.462 54.3941L110.971 53.8866C111.559 53.3206 111.539 53.301 110.089 52.9302L109.404 52.7545L110.05 52.4227C110.756 52.0323 110.873 51.5834 110.305 51.4077C110.089 51.3492 109.678 50.9783 109.384 50.5879C109.051 50.1585 108.953 49.9243 109.149 49.9829C109.306 50.0609 109.56 50.0219 109.698 49.9438C109.893 49.8267 109.815 49.7291 109.404 49.6315L108.855 49.4949L109.286 49.1436L109.717 48.7922L109.208 48.4604C108.659 48.1091 108.561 47.504 109.012 47.2502C109.443 47.016 109.169 46.3719 108.698 46.489C108.483 46.5476 108.365 46.5085 108.444 46.4109C108.502 46.3133 108.463 46.2353 108.365 46.2353C108.248 46.2353 108.189 45.8839 108.208 45.4545C108.228 44.947 108.15 44.6542 107.973 44.5762C107.738 44.4981 107.738 44.42 107.954 44.1468C108.169 43.893 108.169 43.8149 107.993 43.7564C107.856 43.6978 107.719 43.3855 107.719 43.0537C107.679 42.4486 107.679 42.4486 107.601 42.9561C107.562 43.2684 107.425 43.5026 107.327 43.5026C107.209 43.5026 107.17 43.7564 107.209 44.0687C107.268 44.381 107.248 44.7128 107.19 44.7714C107.111 44.8494 107.033 44.9861 107.033 45.0837C107.013 45.1813 106.994 45.3374 106.974 45.4545C106.974 45.5521 106.759 45.6497 106.524 45.6497C106.132 45.6497 106.132 45.6692 106.426 46.001C106.876 46.489 106.837 46.8208 106.367 46.8208C105.936 46.8208 105.838 47.1136 106.19 47.3283C106.308 47.3869 106.347 47.6406 106.288 47.8553C106.23 48.0895 106.288 48.4018 106.426 48.558C106.621 48.7922 106.602 48.8117 106.249 48.6165C105.701 48.3238 105.289 48.6946 105.583 49.2607C105.603 49.3192 105.642 49.4168 105.661 49.4949C105.681 49.5925 105.779 49.8462 105.857 50.1C106.053 50.6855 105.681 51.1149 104.976 51.1149C104.251 51.1149 104.251 51.3882 104.995 51.8371C105.74 52.2665 105.759 52.6764 105.015 52.6764C104.525 52.6764 104.466 52.735 104.564 53.1059C104.721 53.6914 105.132 54.1013 105.407 53.9256C105.544 53.8476 105.603 53.9061 105.544 54.0623C105.505 54.2184 105.211 54.355 104.937 54.3941C104.643 54.4331 104.408 54.5307 104.408 54.6283C104.408 54.7259 104.251 54.7454 104.074 54.6869C103.839 54.5893 103.781 54.6478 103.879 54.8821C103.937 55.0577 103.918 55.2529 103.82 55.3115C103.467 55.5262 103.624 55.7604 104.212 55.9751C104.545 56.0727 104.799 56.2679 104.799 56.4045C104.799 56.5216 104.937 56.5802 105.093 56.5216C105.25 56.4436 105.426 56.4826 105.485 56.5802C105.661 56.873 104.976 57.3804 104.427 57.3609C103.663 57.3024 103.095 57.3804 103.389 57.4976C103.506 57.5366 103.624 57.7123 103.624 57.8684C103.624 58.0246 103.722 58.1417 103.82 58.1417C103.937 58.1417 104.016 58.2588 104.016 58.4149C104.016 58.5711 104.153 58.7272 104.31 58.8053C104.937 59.0395 104.584 59.3323 103.722 59.2933C103.252 59.2542 102.801 59.2933 102.723 59.3714C102.546 59.5275 100.881 59.5665 100.881 59.3909C100.881 59.3323 100.979 59.1176 101.077 58.9029C101.234 58.6101 101.214 58.5321 100.979 58.5321C100.822 58.5321 100.685 58.4345 100.685 58.3369C100.685 58.2198 100.176 58.1417 99.529 58.1417C98.8825 58.1417 98.2947 58.0441 98.2359 57.9465C98.1771 57.8294 98.2555 57.7513 98.4122 57.7513C98.5886 57.7513 98.7257 57.6927 98.7257 57.5952C98.7257 57.5171 99.0784 57.3024 99.4898 57.1072C100.43 56.6583 100.43 56.2093 99.5094 55.7604C99.1176 55.5847 98.5298 55.0382 98.1771 54.5698C97.5306 53.6719 97.3934 53.3401 97.7461 53.5548C97.8637 53.6133 98.1184 53.6133 98.3339 53.5548C98.6669 53.4572 98.6865 53.3986 98.4514 53.1644C98.3143 53.0083 98.0204 52.9302 97.8049 52.9887C97.5502 53.0668 97.413 52.9887 97.413 52.7936C97.413 52.6179 97.4718 52.4813 97.5306 52.4813C97.5894 52.4813 97.8637 52.3056 98.1184 52.1104C98.6474 51.7005 98.569 51.5444 97.5306 50.8807C96.8644 50.4708 96.9624 49.612 97.6873 49.3387C98.0988 49.1826 98.138 49.1045 97.942 48.8703C97.8049 48.7141 97.7657 48.5775 97.8245 48.5775C97.9028 48.5775 97.8245 48.4409 97.6677 48.2847C97.4326 48.0505 97.2759 48.031 96.982 48.1871C96.453 48.4604 96.2767 48.4409 96.551 48.1091C96.7273 47.8944 96.7077 47.8163 96.453 47.7187C96.1591 47.6016 96.1591 47.5625 96.453 47.1136C96.6293 46.8403 96.6881 46.6256 96.5901 46.6256C96.3158 46.6256 96.1983 45.9034 96.4334 45.6692C96.5901 45.5131 96.5706 45.4545 96.3942 45.4545C96.2571 45.4545 96.022 45.3374 95.8848 45.1813C95.6497 44.947 95.6693 44.869 95.9828 44.5762C96.4922 44.1077 96.4726 43.8345 95.9632 43.9906C95.6497 44.0882 95.5713 44.0492 95.5909 43.7564C95.6105 43.5612 95.6105 43.0928 95.5909 42.7219C95.5713 42.1559 95.5322 42.0973 95.395 42.4291C95.297 42.6438 95.2187 43.0537 95.2187 43.3465C95.1991 43.7369 95.1207 43.854 94.9052 43.7759C94.5329 43.6198 94.5329 43.9125 94.9052 44.4005C95.2774 44.8885 95.2774 45.1813 94.8856 44.8494C94.6309 44.6347 94.6113 44.6738 94.7093 45.1227C94.8072 45.474 94.768 45.6497 94.6113 45.6497C94.4154 45.6497 94.4154 45.7083 94.5917 45.923C94.7485 46.1182 94.768 46.2353 94.6113 46.3329C94.4937 46.3914 94.4742 46.5671 94.5329 46.6842C94.6113 46.8208 94.6113 46.8599 94.5133 46.7818C94.435 46.7037 94.239 46.7232 94.1019 46.8403C93.9452 46.9575 93.6905 47.016 93.5337 46.9379C93.0635 46.7623 93.2006 47.1722 93.71 47.504C94.3174 47.9139 94.1803 48.558 93.4162 48.7141L92.8872 48.8117L93.2006 49.4754C93.3966 49.8462 93.6905 50.139 93.8864 50.139C94.0823 50.139 94.1999 50.2171 94.1411 50.3147C94.0823 50.3928 93.808 50.4318 93.5141 50.3732C93.0439 50.2952 93.0047 50.3147 93.1419 50.7441C93.2398 50.9978 93.4358 51.3296 93.6121 51.4663C93.8864 51.681 93.8864 51.7005 93.5337 51.6615C93.3182 51.6224 93.0831 51.5248 93.0243 51.4272C92.9459 51.3296 92.6716 51.3101 92.3974 51.3882C91.9271 51.5053 91.9075 51.5444 92.1035 52.1104C92.2602 52.5593 92.3974 52.6764 92.6716 52.6179C92.8872 52.5593 93.0047 52.5984 92.9264 52.696C92.8676 52.7936 92.6912 52.8716 92.5345 52.8716C92.3778 52.8716 92.2602 52.9497 92.2602 53.0668C92.2602 53.1644 92.3386 53.262 92.4561 53.262C92.5541 53.262 92.5933 53.3791 92.5345 53.5353C92.4757 53.6719 92.5737 53.8476 92.7304 53.9061C93.1419 54.0623 93.1223 54.2379 92.5933 54.843C92.2602 55.2334 91.9663 55.3505 91.3198 55.3505C90.3401 55.37 90.1442 55.4871 90.4969 55.897C90.634 56.0727 90.7908 56.1508 90.8495 56.1117C90.9671 55.9751 91.4765 56.5021 91.4765 56.7559C91.4765 56.873 91.6528 56.9706 91.8684 56.9706C92.2602 56.9706 92.6129 57.4585 92.3974 57.6732C92.3582 57.7318 91.8488 57.7903 91.3002 57.7903C90.3401 57.8099 90.3206 57.8294 90.634 58.1807C90.8104 58.3759 90.9083 58.5711 90.8495 58.6296C90.5948 58.8834 87.3033 58.3369 86.6568 57.927C85.4224 57.1657 86.2453 56.385 87.558 57.0682C88.3809 57.478 88.7532 57.1853 88.1458 56.6192C87.8911 56.385 87.7735 56.1117 87.8519 55.9946C87.9499 55.819 87.8715 55.7994 87.5972 55.8775C87.1466 56.0337 86.7939 55.6433 87.1662 55.4091C87.3425 55.2919 87.3425 55.2334 87.1858 55.1163C87.0094 55.0187 87.029 54.8625 87.2641 54.5112C87.5972 54.0037 87.4405 53.9256 86.7155 54.2575C86.3433 54.4331 86.1082 54.3941 85.5792 54.1013L84.913 53.75L85.5988 53.6914C85.971 53.6524 86.4216 53.5157 86.5784 53.3791C86.7351 53.2425 87.029 53.0668 87.2249 53.0083C87.5776 52.8716 87.6756 52.1885 87.3621 51.9933C87.2641 51.9347 86.8135 52.0714 86.3825 52.2861C85.54 52.7155 84.7955 52.735 84.6779 52.3641C84.6387 52.2275 84.9326 52.0714 85.3441 51.9933C86.1669 51.8567 86.9702 51.4077 86.9702 51.1149C86.9702 50.9978 86.8527 50.9198 86.7351 50.9198C86.598 50.9198 86.2649 50.7441 85.9906 50.5294L85.5008 50.1585L85.9514 49.8462C86.1865 49.6706 86.3825 49.3583 86.3825 49.1436C86.3825 48.8508 86.2453 48.7727 85.7163 48.7727C84.9326 48.7727 84.5408 48.3628 84.6975 47.7187C84.7563 47.4454 84.7367 47.1722 84.6191 47.1136C84.5212 47.055 84.4232 46.4305 84.4232 45.7278C84.4232 45.0446 84.3448 44.4786 84.2273 44.4786C83.9922 44.4786 83.6395 45.7863 83.7767 46.1572C83.8354 46.3133 83.7571 46.4305 83.6199 46.4305C83.4044 46.4305 83.3456 46.7428 83.3652 47.6406C83.3848 49.3192 83.326 49.4168 82.5032 49.2607L81.7978 49.124L82.5227 50.0219C83.2477 50.8807 83.2477 50.9002 82.8362 51.1149C82.6207 51.2516 82.2093 51.2906 81.9546 51.2321C81.6999 51.154 81.4843 51.193 81.4843 51.2906C81.4843 51.5053 81.9742 51.7005 82.5032 51.7005C82.7187 51.7005 82.8558 51.7981 82.797 51.9347C82.7579 52.0714 82.5032 52.1885 82.2093 52.1885C81.935 52.1885 81.6411 52.247 81.5627 52.3251C81.308 52.5984 82.0721 52.7155 82.6795 52.5008C83.0321 52.3837 83.3652 52.3251 83.4044 52.3837C83.6003 52.5593 83.2673 52.7155 82.3268 52.9107C80.348 53.301 80.2892 53.301 80.0345 52.9497C79.8974 52.774 79.6426 52.6569 79.4859 52.735C79.29 52.7936 78.7806 52.4032 77.9773 51.5053C77.3307 50.7636 76.7821 50.1 76.7821 50.0219C76.7821 49.9633 77.0368 49.9438 77.3699 50.0024C77.703 50.0805 77.9577 50.0414 77.9577 49.9438C77.9577 49.8267 78.1732 49.7877 78.5063 49.8657C78.9765 50.0024 79.0157 49.9829 78.761 49.6901C78.6238 49.4949 78.33 49.3583 78.134 49.3583C77.8989 49.3583 77.8205 49.2607 77.8793 49.0655C78.0165 48.7337 77.6638 48.6556 77.4679 48.9679C77.4091 49.0655 77.2132 49.1631 77.0368 49.1631C76.8605 49.1631 76.7821 49.1045 76.8409 49.0264C76.9193 48.9679 76.8605 48.7727 76.7234 48.6165C76.5274 48.3628 76.547 48.3433 76.7626 48.4799C76.9781 48.597 77.0173 48.558 76.9193 48.3238C76.8213 48.07 76.8997 47.9919 77.2328 47.9919C77.4679 47.9919 77.8205 47.8553 78.0361 47.6992C78.3691 47.4454 78.3691 47.4064 77.8597 46.9379C77.5463 46.6647 77.1544 46.4305 76.9585 46.4305C76.7626 46.4305 76.4687 46.2353 76.3119 46.001C75.8613 45.3569 76.2531 44.0882 76.9193 44.0882C77.076 44.0882 77.3307 43.9516 77.4875 43.7954C77.7618 43.5417 77.7618 43.4831 77.5071 43.3855C77.3307 43.327 77.2524 43.1318 77.3307 42.8585C77.4287 42.4486 77.4091 42.4486 77.0368 42.7805C76.547 43.2099 76.2727 42.9756 76.7234 42.4877C77.174 41.9997 76.7038 42.0192 75.9789 42.5462C75.2735 43.0342 74.8425 42.8585 75.3519 42.2925C75.7046 41.9021 75.685 41.9021 75.2931 42.0192C74.5878 42.2339 74.5094 41.5703 75.156 40.9847L75.7046 40.4772L75.2539 40.4187C74.9209 40.3601 74.8229 40.2625 74.9013 40.0478C74.9796 39.8722 74.9405 39.6379 74.8229 39.5013C74.6662 39.3061 74.7053 39.2085 75.0188 39.1109C75.2343 39.0524 75.3715 38.8962 75.2931 38.7986C75.2343 38.701 75.0188 38.662 74.8033 38.7206C74.5486 38.8182 74.431 38.7596 74.4702 38.5839C74.5094 38.4473 74.3723 38.3497 74.1959 38.3497C73.6669 38.3887 73.7845 37.9984 74.431 37.4714C74.7641 37.2176 75.0188 36.9053 75.0188 36.7492C75.0188 36.4369 74.7053 36.3783 74.529 36.6711C74.4702 36.7687 74.2939 36.8663 74.1763 36.8663C74.0196 36.8663 73.9412 36.4759 73.9216 35.7342C73.9216 35.1291 73.8433 34.446 73.7453 34.2313C73.6082 33.8799 73.569 33.8994 73.4514 34.4264C73.3731 34.7387 73.2947 35.4024 73.2751 35.8903C73.2555 36.554 73.1967 36.6906 73.0204 36.5149C72.3934 35.8903 72.2563 36.6906 72.8637 37.4518C73.3535 38.0764 73.3731 38.3887 72.9028 37.9788C72.511 37.6275 72.08 37.5494 72.08 37.8227C72.08 37.9203 72.2171 38.096 72.3738 38.2326C72.5306 38.3692 72.6677 38.6034 72.6677 38.7401C72.6677 38.8962 72.5306 39.0133 72.3738 39.0133C72.0212 39.0133 72.0016 39.2476 72.3151 39.5599C72.511 39.7551 72.511 39.8331 72.3151 39.9698C72.1583 40.0674 72.1191 40.2625 72.2171 40.4968C72.3347 40.8286 72.3151 40.8286 72.0212 40.6139C71.7469 40.3796 71.6489 40.3796 71.3942 40.6529C71.1787 40.8676 70.9044 40.9262 70.5517 40.8481L70.0227 40.731L70.6693 41.3361C71.022 41.6679 71.4138 41.9411 71.5314 41.9411C71.6685 41.9411 71.6489 42.0387 71.5118 42.2144C71.3158 42.4291 71.355 42.5072 71.6293 42.5657C71.9036 42.6243 71.8252 42.7024 71.355 42.9171C71.0024 43.0732 70.7085 43.2684 70.7085 43.327C70.7085 43.3855 70.493 43.4051 70.2187 43.3465C69.6113 43.2294 69.5525 43.6783 70.1207 44.1858C70.3362 44.381 70.4734 44.5762 70.4146 44.6347C70.3558 44.6933 70.4146 44.8494 70.5321 44.9861C70.7868 45.2984 70.5909 45.6692 70.2383 45.5326C70.0815 45.474 69.9052 45.5131 69.8464 45.6107C69.7876 45.7278 69.8464 45.8449 70.0031 45.9034C70.1795 45.9815 70.2383 46.1767 70.1795 46.45C70.1011 46.7623 70.1207 46.8403 70.297 46.7428C70.5321 46.5866 71.1003 46.9379 71.1003 47.2307C71.1003 47.4649 70.0815 47.2307 69.8268 46.9379C69.5721 46.6647 68.6905 46.5476 68.8472 46.8208C68.906 46.9379 68.7688 47.016 68.5337 47.016C68.2006 47.016 68.1615 47.0746 68.3378 47.2893C68.4553 47.4259 68.5141 47.6992 68.4357 47.8748C68.377 48.0505 68.4162 48.1871 68.5533 48.1871C68.6709 48.1871 68.71 48.2847 68.6317 48.4214C68.5337 48.5775 68.71 48.597 69.3174 48.4994C70.1207 48.3823 70.1207 48.3823 69.7289 48.7727C69.5133 48.9874 69.2194 49.1045 69.0627 49.046C68.906 48.9874 68.7296 49.0264 68.6513 49.1436C68.5729 49.2802 68.71 49.3583 68.9647 49.3583C69.3174 49.3583 69.3566 49.4168 69.1803 49.5925C68.808 49.9633 68.8864 50.1195 69.5525 50.3928L70.1795 50.6465L69.4154 51.4077C69.0039 51.8371 68.6905 52.2275 68.6905 52.2861C68.7492 52.4813 67.0839 52.4422 66.8488 52.247C66.6724 52.1104 66.5941 52.1104 66.5941 52.2665C66.5941 52.3837 66.3785 52.4813 66.1042 52.4813C65.7908 52.4813 65.6144 52.5984 65.6144 52.774C65.6144 52.9302 65.7516 53.0668 65.9083 53.0668C66.0651 53.0668 66.2022 53.1644 66.2022 53.2815C66.2022 53.3986 66.3785 53.4572 66.5941 53.3986C66.8096 53.3401 66.9859 53.3791 66.9859 53.4962C66.9859 53.6133 67.1231 53.6524 67.2798 53.5743C67.5345 53.4767 67.6716 53.7695 67.5933 54.277C67.5933 54.3746 67.7696 54.4331 67.9851 54.4331C68.2202 54.4331 68.5337 54.5893 68.6709 54.7649C68.9256 55.0968 68.9256 55.0968 68.9452 54.7649C68.9452 54.4526 69.337 54.2575 69.337 54.5893C69.337 55.0968 68.8472 55.1553 67.221 54.8235C66.2806 54.6283 64.3213 54.2575 62.8715 53.9842C61.4216 53.6914 59.3057 53.301 58.1693 53.0863C55.348 52.5398 52.5071 52.0714 51.8017 52.0128C51.4883 51.9933 51.0572 51.9542 50.8809 51.9347C50.4499 51.8957 50.4107 51.3101 50.8221 51.3101C50.9788 51.3101 51.116 51.2321 51.116 51.1345C51.116 50.9783 51.8409 50.666 52.1544 50.705C52.3699 50.7441 52.3307 50.3732 52.0956 50.2366C51.9781 50.1585 51.9389 50.0414 51.9977 49.9633C52.0368 49.8657 51.7038 49.6901 51.214 49.5534C50.7241 49.4168 50.3911 49.2216 50.4499 49.1436C50.5086 49.046 50.6458 49.0069 50.7437 49.0655C50.8417 49.1436 50.9201 49.085 50.9201 48.9874C50.9201 48.8703 51.0376 48.7727 51.1748 48.7727C51.3119 48.7727 51.4295 48.597 51.4295 48.3823C51.4295 48.1676 51.3119 47.9724 51.1748 47.9724C51.0376 47.9529 50.8221 47.9334 50.685 47.9139C50.3323 47.8748 50.2539 47.4064 50.6066 47.4064C50.7829 47.4064 50.9201 47.3283 50.9201 47.2307C50.9201 47.1331 51.0964 47.016 51.3315 46.9575C51.8997 46.8013 51.6058 46.4305 50.9397 46.4305C50.6262 46.4305 50.2931 46.3133 50.1756 46.1767C49.9404 45.9034 50.058 45.1422 50.3715 44.7323C50.6262 44.4005 50.3715 44.0492 49.96 44.1858C49.7249 44.2639 49.6466 44.1663 49.6466 43.8345C49.6662 43.5807 49.7445 43.2684 49.8229 43.1318C49.9796 42.8976 49.7837 42.6438 49.2547 42.4682C49.1567 42.4291 49.2155 42.2144 49.4115 41.9802C49.7641 41.5898 49.7641 41.5898 49.3331 41.5117C48.902 41.4532 48.7649 41.1214 48.7453 40.1259C48.7453 39.9502 48.6669 39.7941 48.5494 39.7941C48.4514 39.7941 48.3535 39.5599 48.3535 39.2476C48.3143 38.7206 48.3143 38.7206 48.2359 39.2085C48.1771 39.4818 48.04 39.7551 47.9224 39.8331C47.7853 39.9112 47.7853 40.0478 47.9616 40.2625C48.1771 40.5163 48.1771 40.5944 47.942 40.6724C47.7657 40.7505 47.6677 41.0238 47.6873 41.4141C47.7461 42.2534 47.6285 42.5072 47.2171 42.3901C46.7861 42.273 46.5118 42.839 46.9232 42.9952C47.3346 43.1513 47.2563 43.854 46.8057 43.9906C46.3354 44.1468 46.3158 44.3419 46.7273 44.6933C47.0016 44.9275 46.982 44.9665 46.5705 45.1227C46.1983 45.2984 46.1787 45.3374 46.4726 45.396C46.9624 45.5131 46.884 45.7473 46.1983 46.3133C45.5517 46.8599 45.0423 47.016 45.4342 46.528C45.6497 46.2743 45.5713 46.2353 44.9836 46.2353C44.5917 46.2353 44.2194 46.1377 44.1607 46.0401C44.1019 45.923 44.239 45.8449 44.4937 45.8449C45.0619 45.8254 45.6301 45.4155 45.6301 44.9861C45.6301 44.5957 45.5321 44.5957 44.8464 44.9861C44.5133 45.2008 44.1607 45.2593 43.9451 45.1617C43.6317 45.0446 43.71 44.9861 44.337 44.7909C45.2774 44.5176 45.4146 44.2444 44.7288 43.893C44.2978 43.6588 44.2586 43.5807 44.5329 43.3855C44.964 43.0732 44.9248 42.7219 44.4741 42.7219C44.2586 42.7219 44.0235 42.6048 43.9256 42.4877C43.7688 42.2144 43.7492 42.0973 43.71 40.7115C43.6513 39.2476 43.3182 39.5794 42.9655 41.4532C42.9459 41.5508 42.9263 41.9802 42.9067 42.4096C42.8872 43.1123 42.848 43.1513 42.3778 43.0342L41.8683 42.8976L42.2406 43.3855C42.4365 43.6588 42.6716 43.893 42.75 43.893C43.181 43.9125 42.5933 44.2834 42.1426 44.2834L41.6136 44.3029L42.1035 44.5762C42.5737 44.8494 42.5737 44.8494 42.1622 44.869C41.8488 44.869 41.7508 44.947 41.8292 45.1617C41.9075 45.3764 41.8292 45.4545 41.5157 45.4545C41.2022 45.4545 41.1238 45.5326 41.2022 45.7473C41.3393 46.1377 41.0455 46.1182 40.732 45.7473C40.5361 45.5131 40.5361 45.3764 40.6928 45.2203C41.0846 44.8299 40.9475 44.4981 40.3989 44.4395C39.9679 44.4005 39.8503 44.2834 39.8307 43.893C39.7915 42.8 39.5173 41.6874 39.3409 41.9607C39.243 42.1168 39.1646 42.4291 39.1646 42.6633C39.1646 42.9171 39.1058 43.1123 39.0078 43.1123C38.9295 43.1123 38.8903 43.5026 38.9295 43.9906C39.0078 44.8299 38.9883 44.869 38.4593 44.869H37.9303L38.3809 45.3569C38.8707 45.8644 38.7923 46.1182 38.087 46.2938C37.7343 46.3719 37.7343 46.3914 38.1458 46.4109C38.6944 46.4305 38.714 46.8208 38.1654 46.8208C37.9303 46.8208 37.8323 46.8989 37.8911 47.0355C37.9694 47.1526 37.8519 47.2893 37.6168 47.3478C37.029 47.504 37.1074 47.8553 37.6951 47.7577C37.9694 47.6992 38.1262 47.7382 38.0478 47.8553C37.989 47.9529 38.0674 48.1091 38.2046 48.2067C38.4201 48.3628 38.3809 48.4604 38.0086 48.7727C37.7539 48.9874 37.3621 49.1631 37.127 49.1631C36.7939 49.1826 36.8135 49.2216 37.3033 49.4363L37.8911 49.7096L37.4209 49.8853C37.1074 50.0024 37.029 50.1195 37.1662 50.2171C37.4404 50.3732 37.0094 50.9198 36.598 50.9198C36.4216 50.9198 36.4216 50.9783 36.6176 51.193C36.7939 51.4272 36.7155 51.5053 36.1082 51.6224C35.3245 51.7591 35.4028 51.8371 33.6591 49.6901L33.0517 48.9679L33.6199 49.0069C35.0893 49.1045 35.8143 48.7727 34.8151 48.4604C34.5604 48.3823 34.3057 48.2457 34.2273 48.1286C34.1489 47.9919 34.0118 47.9919 33.8354 48.1481C33.6199 48.3238 33.4828 48.2847 33.2281 47.9919C32.9146 47.6211 32.9146 47.6016 33.2281 47.6016C33.4044 47.6016 33.4828 47.543 33.424 47.4845C33.3456 47.4064 33.6591 47.1722 34.1097 46.9575C34.7955 46.6061 34.8542 46.528 34.5799 46.3329C34.4036 46.1962 34.2665 46.001 34.2665 45.8839C34.2665 45.7668 33.953 45.6107 33.5807 45.5326C32.7774 45.396 32.4444 45.0446 32.4248 44.3224C32.4052 43.7564 32.797 43.327 33.3064 43.3075C33.7767 43.3075 34.2077 42.7414 33.9138 42.5462C33.7767 42.4682 33.7179 42.2534 33.7962 42.0778C33.8746 41.8631 33.8158 41.746 33.6199 41.746C33.4632 41.746 33.2868 41.8631 33.2281 41.9802C33.1889 42.1168 33.0713 42.1754 32.993 42.0778C32.895 41.9997 32.9342 41.824 33.0517 41.7069C33.4828 41.2775 33.2868 41.1409 32.6991 41.4532C32.3856 41.6288 32.1113 41.824 32.1113 41.9216C32.1113 42.0192 31.935 42.0583 31.7194 41.9997L31.308 41.8826L31.7194 41.5117C32.2093 41.0433 32.2288 40.9067 31.7194 41.0628C31.0533 41.2775 31.0141 40.6334 31.6411 39.9698C32.1701 39.4232 32.1701 39.4037 31.7586 39.4037C31.4647 39.4037 31.3276 39.2866 31.3276 39.0524C31.3276 38.8572 31.2296 38.6034 31.0925 38.4668C30.9162 38.2911 30.9553 38.2326 31.2884 38.2326C31.5235 38.2326 31.7194 38.135 31.7194 38.0374C31.7194 37.9203 31.5431 37.8422 31.3472 37.8422C31.1513 37.8422 30.9162 37.7056 30.8574 37.5299C30.7594 37.2762 30.681 37.2567 30.4459 37.4518C30.2108 37.647 30.152 37.647 30.152 37.4323C30.152 37.2762 30.4851 36.8858 30.877 36.5345C31.6215 35.9294 31.6607 35.4024 30.9357 35.8513C30.7202 35.9879 30.5047 36.0855 30.4459 36.0855C30.3872 36.0855 30.348 35.539 30.348 34.8559C30.348 33.6652 30.152 33.0211 29.8973 33.2944ZM91.2806 60.2887L91.7704 60.4449L91.2806 60.4839C91.0063 60.5034 90.6732 60.523 90.5165 60.5034C90.3793 60.4644 90.3206 60.5425 90.3989 60.6596C90.4773 60.7962 90.301 60.8743 89.9679 60.8743C89.4781 60.8938 89.4585 60.9133 89.7524 61.1476C90.0854 61.3818 90.0854 61.4208 89.7132 61.7526C89.4977 61.9478 89.3213 62.1625 89.3213 62.2211C89.3213 62.2796 89.772 62.5334 90.301 62.7676C90.9083 63.0409 91.2806 63.3337 91.2806 63.5288C91.2806 63.8021 91.3198 63.8021 91.5941 63.5874C91.8488 63.3922 91.9271 63.3922 92.0643 63.6069C92.2406 63.8997 91.9859 64.5633 91.6724 64.6024C91.3981 64.6414 91.2218 64.7 90.8104 64.8756C90.5948 64.9732 90.301 64.9537 90.0854 64.8171C89.6348 64.5438 89.4585 64.5243 89.6152 64.7585C89.674 64.8561 89.4389 64.9732 89.0862 65.0123L88.4397 65.0903L89.0274 65.3441C89.4781 65.5198 89.5369 65.6173 89.3213 65.754C89.1646 65.8516 88.9883 65.9101 88.9295 65.8711C88.1458 65.5393 87.3817 65.0318 87.1858 64.7585C86.9898 64.4267 87.029 64.3877 87.4405 64.3877C88.0086 64.3877 88.6944 63.8411 88.7727 63.3141C88.8315 62.9628 88.714 62.9238 87.8715 62.9238C86.7743 62.9238 86.4216 62.5334 87.3229 62.3382C88.1654 62.1625 88.616 61.5965 88.4789 60.8938C88.4005 60.523 88.4397 60.2887 88.5964 60.2107C88.9687 60.074 90.732 60.1131 91.2806 60.2887ZM113.342 60.5815C113.675 60.8353 113.596 60.8548 112.401 60.8743C111.657 60.8743 111.069 60.9524 111.069 61.05C111.069 61.1476 110.912 61.2647 110.736 61.3037C110.422 61.3623 110.422 61.3818 110.736 61.6941C110.912 61.8698 111.069 62.0845 111.069 62.1821C111.069 62.3968 112.068 62.8457 112.264 62.7091C112.362 62.6505 112.44 62.6895 112.44 62.8067C112.44 63.0799 112.009 63.1775 111.422 63.0018C111.108 62.9238 110.873 62.9238 110.873 63.0214C110.873 63.0994 110.54 63.2361 110.148 63.3141C109.462 63.4313 109.443 63.4703 109.776 63.7045C109.972 63.8607 110.246 63.9192 110.403 63.8607C110.716 63.7436 110.775 64.1144 110.481 64.2901C110.383 64.3486 110.285 64.5048 110.285 64.6024C110.285 64.7195 110.364 64.7585 110.462 64.6804C110.56 64.6219 110.697 64.6609 110.775 64.778C110.834 64.8756 110.795 64.9732 110.697 64.9732C110.579 64.9732 110.481 65.0708 110.481 65.1879C110.481 65.3246 110.716 65.3636 111.187 65.266C111.853 65.1489 111.872 65.1684 111.755 65.5978C111.598 66.0468 111.618 66.0468 112.029 65.6759C112.617 65.1489 112.538 65.5393 111.892 66.2615L111.363 66.8861L107.738 67.0032C105.74 67.0813 103.722 67.1593 103.252 67.1788C102.664 67.1984 102.35 67.1398 102.292 66.9446C102.233 66.7885 102.292 66.7299 102.429 66.808C102.546 66.8861 102.742 66.8861 102.86 66.8275C103.173 66.6128 102.409 66.1444 101.939 66.2615C101.625 66.3395 101.488 66.2615 101.41 65.9687C101.332 65.6564 101.136 65.5588 100.646 65.5393C100.293 65.5198 100.156 65.4807 100.352 65.4222C100.803 65.305 100.783 65.1294 100.195 64.5048C99.5878 63.8411 99.2351 63.2165 99.4898 63.2165C99.5878 63.2165 99.7445 63.2946 99.8033 63.4117C99.8621 63.5093 100.019 63.6069 100.156 63.6069C100.313 63.6069 100.313 63.5484 100.136 63.3727C99.7249 62.9628 99.8817 62.8067 100.626 62.9433C101.214 63.0604 101.312 63.0214 101.214 62.7676C101.155 62.5919 101.194 62.4358 101.312 62.3968C101.469 62.3382 101.449 62.2016 101.292 61.8893C101.096 61.5184 101.116 61.4599 101.449 61.4599C101.665 61.4599 101.88 61.3818 101.939 61.3037C101.998 61.2061 103.526 61.0695 105.328 60.9914C107.131 60.9133 109.325 60.7377 110.187 60.601C112.303 60.2497 112.891 60.2302 113.342 60.5815Z" fill="#333333"/>
</svg>
